<svg width="16" height="16" viewBox="0 0 16 16" fill="none" xmlns="http://www.w3.org/2000/svg">
<path d="M12.0138 8.00001C12.0138 7.76959 11.9217 7.55761 11.7466 7.39171L4.447 0.239631C4.28111 0.0829494 4.07834 0 3.83871 0C3.36866 0 3 0.359447 3 0.838711C3 1.06912 3.09217 1.28111 3.23963 1.43779L9.94932 8.00001L3.23963 14.5622C3.09217 14.7189 3 14.9216 3 15.1614C3 15.6406 3.36866 16 3.83871 16C4.07834 16 4.28111 15.917 4.447 15.7512L11.7466 8.6083C11.9217 8.43319 12.0138 8.23042 12.0138 8.00001Z" fill="black"/>
</svg>
